<svg xmlns="http://www.w3.org/2000/svg" xmlns:xlink="http://www.w3.org/1999/xlink" viewBox="0 0 1000 1000" width="528" height="528" preserveAspectRatio="xMidYMid meet" style="width: 100%; height: 100%; transform: translate3d(0px, 0px, 0px); content-visibility: visible; background-color: transparent;"><defs><clipPath id="__lottie_element_58"><rect width="1000" height="1000" x="0" y="0"/></clipPath></defs><g clip-path="url(#__lottie_element_58)"><g transform="matrix(1,0,0,1,0,0)" opacity="1" style="display: block;"><g opacity="1" transform="matrix(1,0,0,1,510.4159851074219,666.8709716796875)"><path fill="rgb(60,76,153)" fill-opacity="1" d=" M211.91600036621094,-111.90499877929688 C205.33700561523438,-139.2270050048828 182.23899841308594,-157.0970001220703 160.3280029296875,-151.8209991455078 C157.32699584960938,-151.09800720214844 154.52499389648438,-149.94700622558594 151.90499877929688,-148.48399353027344 C151.88900756835938,-148.5189971923828 -213.6750030517578,61.46799850463867 -213.6750030517578,61.46799850463867 C-213.6750030517578,61.46799850463867 -171.5489959716797,152.7449951171875 -171.5489959716797,152.7449951171875 C-171.5489959716797,152.7449951171875 192.5290069580078,-56.16299819946289 192.5290069580078,-56.16299819946289 C209.072998046875,-65.38999938964844 217.6009979248047,-88.2969970703125 211.91600036621094,-111.90499877929688z"/></g><g opacity="1" transform="matrix(1,0,0,1,528.2020263671875,666.8779907226562)"><path fill="rgb(49,57,96)" fill-opacity="1" d=" M194.13099670410156,-111.91200256347656 C193.57699584960938,-114.20500183105469 192.86900329589844,-116.40299987792969 192.09500122070312,-118.55500030517578 C191.90499877929688,-119.08399963378906 191.7100067138672,-119.6050033569336 191.50599670410156,-120.125 C190.68499755859375,-122.23100280761719 189.7989959716797,-124.28900146484375 188.77999877929688,-126.23500061035156 C187.73300170898438,-128.22999572753906 186.59500122070312,-130.05499267578125 185.4029998779297,-131.82200622558594 C185.1219940185547,-132.23899841308594 184.83999633789062,-132.64999389648438 184.5489959716797,-133.05599975585938 C183.30799865722656,-134.7969970703125 182.01300048828125,-136.47300720214844 180.62100219726562,-138.01400756835938 C179.21099853515625,-139.57200622558594 177.7270050048828,-140.968994140625 176.2030029296875,-142.29400634765625 C175.8730010986328,-142.57899475097656 175.5469970703125,-142.86099243164062 175.21299743652344,-143.13600158691406 C172.08299255371094,-145.71499633789062 168.7259979248047,-147.8159942626953 165.21499633789062,-149.39500427246094 C164.86900329589844,-149.55099487304688 164.5260009765625,-149.70399475097656 164.17599487304688,-149.8489990234375 C157.26600646972656,-152.72500610351562 149.843994140625,-153.58700561523438 142.54299926757812,-151.8280029296875 C139.54100036621094,-151.1060028076172 136.74000549316406,-149.95399475097656 134.11900329589844,-148.49000549316406 C134.10299682617188,-148.52499389648438 -141.5800018310547,9.831999778747559 -141.5800018310547,9.831999778747559 C-104.03700256347656,31.632999420166016 -104.1760025024414,85.9010009765625 -141.82899475097656,107.51000213623047 C-141.82899475097656,107.51000213623047 -195.88900756835938,138.53500366210938 -195.88900756835938,138.53500366210938 C-195.88900756835938,138.53500366210938 -189.3350067138672,152.73800659179688 -189.3350067138672,152.73800659179688 C-189.3350067138672,152.73800659179688 174.74400329589844,-56.16899871826172 174.74400329589844,-56.16899871826172 C191.28700256347656,-65.39600372314453 199.81399536132812,-88.30400085449219 194.13099670410156,-111.91200256347656z"/></g><g opacity="1" transform="matrix(1,0,0,1,318.0639953613281,774.0170288085938)"><path fill="rgb(78,93,196)" fill-opacity="1" d=" M39.67599868774414,-9.553999900817871 C46.255001068115234,17.76799964904785 33.82400131225586,44.194000244140625 11.911999702453613,49.470001220703125 C-10,54.74700164794922 -33.09700012207031,36.875 -39.67599868774414,9.553999900817871 C-46.255001068115234,-17.76799964904785 -33.82400131225586,-44.19300079345703 -11.911999702453613,-49.470001220703125 C10,-54.74599838256836 33.09700012207031,-36.875999450683594 39.67599868774414,-9.553999900817871z"/></g></g><g transform="matrix(1,0,0,1,0,0)" opacity="1" style="display: block;"><g opacity="1" transform="matrix(1,0,0,1,490.302001953125,666.8709716796875)"><path fill="rgb(78,93,196)" fill-opacity="1" d=" M-211.91600036621094,-111.90499877929688 C-205.33700561523438,-139.2270050048828 -182.24000549316406,-157.0970001220703 -160.3280029296875,-151.8209991455078 C-157.32699584960938,-151.09800720214844 -154.52499389648438,-149.94700622558594 -151.90499877929688,-148.48399353027344 C-151.88900756835938,-148.5189971923828 213.6750030517578,61.46799850463867 213.6750030517578,61.46799850463867 C213.6750030517578,61.46799850463867 171.5489959716797,152.7449951171875 171.5489959716797,152.7449951171875 C171.5489959716797,152.7449951171875 -192.5290069580078,-56.16299819946289 -192.5290069580078,-56.16299819946289 C-209.07400512695312,-65.38999938964844 -217.6009979248047,-88.2969970703125 -211.91600036621094,-111.90499877929688z"/></g><g opacity="1" transform="matrix(1,0,0,1,472.5159912109375,667.3980102539062)"><path fill="rgb(78,93,196)" fill-opacity="1" d=" M-194.13099670410156,-112.43199920654297 C-189.177001953125,-133.00599670410156 -174.85400390625,-148.21099853515625 -158.72500610351562,-152.21800231933594 C-167.52699279785156,-144.97300720214844 -174.50399780273438,-134.08299255371094 -177.66000366210938,-120.97899627685547 C-183.34500122070312,-97.37100219726562 -174.81700134277344,-74.46299743652344 -158.26199340820312,-65.25900268554688 C-158.27200317382812,-65.23699951171875 195.88900756835938,138.01499938964844 195.88900756835938,138.01499938964844 C195.88900756835938,138.01499938964844 189.33399963378906,152.21800231933594 189.33399963378906,152.21800231933594 C189.33399963378906,152.21800231933594 -174.74400329589844,-56.689998626708984 -174.74400329589844,-56.689998626708984 C-191.28900146484375,-65.91699981689453 -199.8159942626953,-88.8239974975586 -194.13099670410156,-112.43199920654297z"/></g><g opacity="1" transform="matrix(1,0,0,1,682.6539916992188,774.0170288085938)"><path fill="rgb(60,76,153)" fill-opacity="1" d=" M-39.67599868774414,-9.553999900817871 C-46.255001068115234,17.76799964904785 -33.82500076293945,44.194000244140625 -11.911999702453613,49.470001220703125 C10,54.74700164794922 33.09700012207031,36.875 39.67599868774414,9.553999900817871 C46.255001068115234,-17.76799964904785 33.82400131225586,-44.19300079345703 11.911999702453613,-49.470001220703125 C-10.00100040435791,-54.74599838256836 -33.09700012207031,-36.875999450683594 -39.67599868774414,-9.553999900817871z"/></g></g><g transform="matrix(1,0,0,1.0174150466918945,498.2449951171875,408.53631591796875)" opacity="1" style="display: block;"><g opacity="1" transform="matrix(1,0,0,1,0,0)"><path fill="rgb(255,169,41)" fill-opacity="1" d=" M167.06399536132812,13.428999900817871 C153.9320068359375,38.87900161743164 136.87899780273438,64.47200012207031 114.66100311279297,87.65499877929688 C131.91200256347656,-0.3070000112056732 102.9260025024414,-78.0719985961914 79.11199951171875,-137.69500732421875 C60.73899841308594,-120.30400085449219 42.472999572753906,-93.08599853515625 27.43600082397461,-50.82500076293945 C0.0010000000474974513,-148.7729949951172 53.94200134277344,-238.4429931640625 53.94900131225586,-238.45399475097656 C29.114999771118164,-232.24600219726562 -10.173999786376953,-211.8699951171875 -57.91899871826172,-166.42100524902344 C-100.89199829101562,-122.74500274658203 -153.63800048828125,-44.6150016784668 -130.0709991455078,61.944000244140625 C-150.06399536132812,47.9900016784668 -162.4810028076172,29.882999420166016 -169.70599365234375,10.307000160217285 C-175.92799377441406,33.08599853515625 -179.4949951171875,56.922000885009766 -179.4949951171875,81.61900329589844 C-179.4949951171875,168.23699951171875 -99.13200378417969,238.45399475097656 0,238.45399475097656 C99.13200378417969,238.45399475097656 179.4949951171875,168.23699951171875 179.4949951171875,81.61900329589844 C179.4949951171875,57.15800094604492 174.72300720214844,34.62699890136719 167.06399536132812,13.428999900817871z"/></g></g><g transform="matrix(0.8799492716789246,0.07054443657398224,-0.07054443657398224,0.8799492716789246,416.8216857910156,544.5978393554688)" opacity="1" style="display: block;"><g opacity="1" transform="matrix(1,0,0,1,0,0)"><path fill="rgb(255,145,0)" fill-opacity="1" d=" M13.958000183105469,-4.551000118255615 C-15.531000137329102,-48.527000427246094 -63.387001037597656,-94.0739974975586 -70.61199951171875,-113.6500015258789 C-76.83399963378906,-90.87100219726562 -80.4020004272461,-67.03500366210938 -80.4020004272461,-42.3380012512207 C-80.4020004272461,38.763999938964844 -9.944999694824219,105.48100280761719 80.4020004272461,113.6500015258789 C45,39.54100036621094 27.753999710083008,24.076000213623047 13.958000183105469,-4.551000118255615z"/></g></g><g transform="matrix(0.8286565542221069,0.021800855174660683,-0.026299575343728065,0.9996541142463684,497.8309326171875,456.005859375)" opacity="1" style="display: block;"><g opacity="1" transform="matrix(1,0,0,1,0,0)"><path fill="rgb(255,145,0)" fill-opacity="1" d=" M77.03399658203125,70.27799987792969 C107.33599853515625,94.60700225830078 54.35599899291992,144.25399780273438 15.496999740600586,144.25399780273438 C-23.363000869750977,144.25399780273438 -46.5359992980957,120.00499725341797 -51.608001708984375,111.80500030517578 C-145.76800537109375,-40.4379997253418 -16.7810001373291,-144.25399780273438 -16.7810001373291,-144.25399780273438 C-16.7810001373291,-144.25399780273438 -9.883000373840332,0.49399998784065247 77.03399658203125,70.27799987792969z"/></g></g><g transform="matrix(0.8077343106269836,0,0,0.8077343106269836,504.94000244140625,515.4110107421875)" opacity="1" style="display: block;"><g opacity="1" transform="matrix(1,0,0,1,0,0)"><path fill="rgb(239,82,14)" fill-opacity="1" d=" M27.25,-112.2979965209961 C19.66200065612793,-65.21800231933594 -25.639999389648438,-35.9900016784668 -29.570999145507812,9.73900032043457 C-39.82500076293945,-1.190999984741211 -48.57699966430664,-19.625999450683594 -51.34000015258789,-46.055999755859375 C-84.4540023803711,-11.722999572753906 -91.98699951171875,36.56999969482422 -71.83699798583984,71.12999725341797 C-59.07400131225586,93.0199966430664 -34.64099884033203,110.37100219726562 -6.645999908447266,112.12799835205078 C54.13999938964844,115.94200134277344 88.83799743652344,54.8849983215332 82.11299896240234,1.246999979019165 C79.13300323486328,-22.51300048828125 60.36899948120117,-65.73500061035156 27.25,-112.2979965209961z"/></g></g><g transform="matrix(0.4116913676261902,0,0,0.4116913676261902,492.6883544921875,278.7923583984375)" opacity="1" style="display: block;"><g opacity="1" transform="matrix(1,0,0,1,0,0)"><path fill="rgb(255,145,0)" fill-opacity="1" d=" M-23.066999435424805,0 C-23.066999435424805,0 -11.534000396728516,-11.534000396728516 -11.534000396728516,-11.534000396728516 C-11.534000396728516,-11.534000396728516 0,-36.042999267578125 0,-36.042999267578125 C0,-36.042999267578125 11.534000396728516,-11.534000396728516 11.534000396728516,-11.534000396728516 C11.534000396728516,-11.534000396728516 23.066999435424805,0 23.066999435424805,0 C23.066999435424805,0 11.534000396728516,11.534000396728516 11.534000396728516,11.534000396728516 C11.534000396728516,11.534000396728516 0,36.042999267578125 0,36.042999267578125 C0,36.042999267578125 -11.534000396728516,11.534000396728516 -11.534000396728516,11.534000396728516 C-11.534000396728516,11.534000396728516 -23.066999435424805,0 -23.066999435424805,0z"/></g></g><g style="display: none;"><g><path/></g></g><g transform="matrix(0.10000000149011612,0,0,0.10000000149011612,587.4439697265625,471.4129943847656)" opacity="1" style="display: none;"><g opacity="1" transform="matrix(1,0,0,1,0,0)"><path fill="rgb(255,145,0)" fill-opacity="1" d=" M-23.066999435424805,0 C-23.066999435424805,0 -11.534000396728516,-11.534000396728516 -11.534000396728516,-11.534000396728516 C-11.534000396728516,-11.534000396728516 0,-36.042999267578125 0,-36.042999267578125 C0,-36.042999267578125 11.534000396728516,-11.534000396728516 11.534000396728516,-11.534000396728516 C11.534000396728516,-11.534000396728516 23.066999435424805,0 23.066999435424805,0 C23.066999435424805,0 11.534000396728516,11.534000396728516 11.534000396728516,11.534000396728516 C11.534000396728516,11.534000396728516 0,36.042999267578125 0,36.042999267578125 C0,36.042999267578125 -11.534000396728516,11.534000396728516 -11.534000396728516,11.534000396728516 C-11.534000396728516,11.534000396728516 -23.066999435424805,0 -23.066999435424805,0z"/></g></g><g style="display: none;"><g><path/></g></g><g transform="matrix(1,0,0,1,348.5754089355469,206.8297576904297)" opacity="1" style="display: block;"><g opacity="1" transform="matrix(1,0,0,1,0,0)"><path fill="rgb(255,145,0)" fill-opacity="1" d=" M-23.066999435424805,0 C-23.066999435424805,0 -11.534000396728516,-11.534000396728516 -11.534000396728516,-11.534000396728516 C-11.534000396728516,-11.534000396728516 0,-36.042999267578125 0,-36.042999267578125 C0,-36.042999267578125 11.534000396728516,-11.534000396728516 11.534000396728516,-11.534000396728516 C11.534000396728516,-11.534000396728516 23.066999435424805,0 23.066999435424805,0 C23.066999435424805,0 11.534000396728516,11.534000396728516 11.534000396728516,11.534000396728516 C11.534000396728516,11.534000396728516 0,36.042999267578125 0,36.042999267578125 C0,36.042999267578125 -11.534000396728516,11.534000396728516 -11.534000396728516,11.534000396728516 C-11.534000396728516,11.534000396728516 -23.066999435424805,0 -23.066999435424805,0z"/></g></g><g transform="matrix(1,0,0,1,621.904052734375,483.7387390136719)" opacity="0.8323529411764706" style="display: block;"><g opacity="1" transform="matrix(1,0,0,1,0,0)"><path fill="rgb(255,145,0)" fill-opacity="1" d=" M-13.244000434875488,0 C-13.244000434875488,0 -6.622000217437744,-6.622000217437744 -6.622000217437744,-6.622000217437744 C-6.622000217437744,-6.622000217437744 0,-20.69499969482422 0,-20.69499969482422 C0,-20.69499969482422 6.622000217437744,-6.622000217437744 6.622000217437744,-6.622000217437744 C6.622000217437744,-6.622000217437744 13.244000434875488,0 13.244000434875488,0 C13.244000434875488,0 6.622000217437744,6.622000217437744 6.622000217437744,6.622000217437744 C6.622000217437744,6.622000217437744 0,20.69499969482422 0,20.69499969482422 C0,20.69499969482422 -6.622000217437744,6.622000217437744 -6.622000217437744,6.622000217437744 C-6.622000217437744,6.622000217437744 -13.244000434875488,0 -13.244000434875488,0z"/></g></g><g style="display: none;"><g><path/></g></g><g transform="matrix(1,0,0,1,323.61627197265625,412.2604064941406)" opacity="0.4970588235294118" style="display: block;"><g opacity="1" transform="matrix(1,0,0,1,0,0)"><path fill="rgb(255,145,0)" fill-opacity="1" d=" M-13.244000434875488,0 C-13.244000434875488,0 -6.622000217437744,-6.622000217437744 -6.622000217437744,-6.622000217437744 C-6.622000217437744,-6.622000217437744 0,-20.69499969482422 0,-20.69499969482422 C0,-20.69499969482422 6.622000217437744,-6.622000217437744 6.622000217437744,-6.622000217437744 C6.622000217437744,-6.622000217437744 13.244000434875488,0 13.244000434875488,0 C13.244000434875488,0 6.622000217437744,6.622000217437744 6.622000217437744,6.622000217437744 C6.622000217437744,6.622000217437744 0,20.69499969482422 0,20.69499969482422 C0,20.69499969482422 -6.622000217437744,6.622000217437744 -6.622000217437744,6.622000217437744 C-6.622000217437744,6.622000217437744 -13.244000434875488,0 -13.244000434875488,0z"/></g></g><g style="display: none;"><g><path/></g></g><g style="display: none;"><g><path/></g></g><g style="display: none;"><g><path/></g></g><g transform="matrix(1,0,0,1,355.9552917480469,508.73883056640625)" opacity="0.7205882352941176" style="display: block;"><g opacity="1" transform="matrix(1,0,0,1,0,0)"><path fill="rgb(255,145,0)" fill-opacity="1" d=" M-13.244000434875488,0 C-13.244000434875488,0 -6.622000217437744,-6.622000217437744 -6.622000217437744,-6.622000217437744 C-6.622000217437744,-6.622000217437744 0,-20.69499969482422 0,-20.69499969482422 C0,-20.69499969482422 6.622000217437744,-6.622000217437744 6.622000217437744,-6.622000217437744 C6.622000217437744,-6.622000217437744 13.244000434875488,0 13.244000434875488,0 C13.244000434875488,0 6.622000217437744,6.622000217437744 6.622000217437744,6.622000217437744 C6.622000217437744,6.622000217437744 0,20.69499969482422 0,20.69499969482422 C0,20.69499969482422 -6.622000217437744,6.622000217437744 -6.622000217437744,6.622000217437744 C-6.622000217437744,6.622000217437744 -13.244000434875488,0 -13.244000434875488,0z"/></g></g></g></svg>